<svg width="24" height="24" viewBox="0 0 24 24" fill="none" xmlns="http://www.w3.org/2000/svg">
<g clip-path="url(#clip0_70_135)">
<path d="M0.512212 11.8564C0.511649 13.8728 1.04265 15.8418 2.05234 17.5772L0.415649 23.5067L6.53115 21.9156C8.22262 22.8293 10.1178 23.308 12.0436 23.3082H12.0487C18.4064 23.3082 23.5816 18.1749 23.5844 11.8654C23.5856 8.808 22.3867 5.93302 20.2085 3.77005C18.0307 1.60726 15.1343 0.415534 12.0482 0.414139C5.68984 0.414139 0.514931 5.54716 0.512306 11.8564" fill="url(#paint0_linear_70_135)"/>
<path d="M0.100313 11.8527C0.0996563 13.9417 0.649687 15.981 1.69537 17.7786L0 23.9207L6.33478 22.2726C8.08022 23.2168 10.0454 23.7147 12.0451 23.7154H12.0502C18.636 23.7154 23.9972 18.3975 24 11.8621C24.0011 8.69488 22.7591 5.71656 20.5031 3.47609C18.2468 1.23591 15.2468 0.00130233 12.0502 0C5.46337 0 0.102938 5.31721 0.100313 11.8527ZM3.87291 17.469L3.63637 17.0965C2.64206 15.5277 2.11725 13.7149 2.118 11.8534C2.12006 6.4213 6.57544 2.00186 12.054 2.00186C14.7071 2.00298 17.2005 3.02921 19.0759 4.89116C20.9512 6.7533 21.9831 9.22865 21.9824 11.8614C21.98 17.2935 17.5245 21.7135 12.0502 21.7135H12.0463C10.2638 21.7126 8.51569 21.2376 6.99113 20.34L6.62831 20.1265L2.86912 21.1045L3.87291 17.469Z" fill="url(#paint1_linear_70_135)"/>
<path d="M9.06358 6.89749C8.8399 6.40419 8.60449 6.39423 8.39177 6.38558C8.21758 6.37814 8.01846 6.3787 7.81952 6.3787C7.6204 6.3787 7.29687 6.45302 7.0234 6.7493C6.74965 7.04586 5.97827 7.76251 5.97827 9.22009C5.97827 10.6777 7.04824 12.0864 7.1974 12.2843C7.34674 12.4818 9.26299 15.5687 12.2979 16.7562C14.8201 17.7431 15.3334 17.5468 15.8808 17.4973C16.4283 17.448 17.6474 16.7808 17.8961 16.089C18.1451 15.3973 18.1451 14.8044 18.0704 14.6805C17.9958 14.557 17.7967 14.4829 17.4981 14.3348C17.1995 14.1867 15.7315 13.4699 15.4578 13.371C15.1841 13.2722 14.985 13.2229 14.7859 13.5195C14.5868 13.8157 14.015 14.4829 13.8407 14.6805C13.6666 14.8785 13.4923 14.9032 13.1938 14.755C12.8951 14.6063 11.9335 14.2939 10.7926 13.2847C9.90499 12.4993 9.30574 11.5296 9.13155 11.2329C8.95737 10.9367 9.1129 10.7762 9.26262 10.6286C9.39677 10.4958 9.5613 10.2826 9.71074 10.1097C9.85962 9.93665 9.9093 9.81321 10.0089 9.61563C10.1085 9.41786 10.0586 9.24484 9.98412 9.09665C9.9093 8.94847 9.32908 7.48326 9.06358 6.89749Z" fill="white"/>
</g>
<defs>
<linearGradient id="paint0_linear_70_135" x1="1158.85" y1="2309.67" x2="1158.85" y2="0.414139" gradientUnits="userSpaceOnUse">
<stop stop-color="#1FAF38"/>
<stop offset="1" stop-color="#60D669"/>
</linearGradient>
<linearGradient id="paint1_linear_70_135" x1="1200" y1="2392.07" x2="1200" y2="0" gradientUnits="userSpaceOnUse">
<stop stop-color="#F9F9F9"/>
<stop offset="1" stop-color="white"/>
</linearGradient>
<clipPath id="clip0_70_135">
<rect width="24" height="24" fill="white"/>
</clipPath>
</defs>
</svg>
