<svg viewBox="0 0 40 40" xmlns="http://www.w3.org/2000/svg" xmlns:xlink="http://www.w3.org/1999/xlink" width="40.000000" height="40.000000" fill="none" customFrame="url(#clipPath_8)">
	<defs>
		<clipPath id="clipPath_8">
			<rect width="40.000000" height="40.000000" x="0.000000" y="0.000000" rx="20.000000" fill="rgb(255,255,255)" />
		</clipPath>
		<clipPath id="clipPath_9">
			<rect width="24.000000" height="24.000000" x="8.000000" y="8.000000" fill="rgb(255,255,255)" />
		</clipPath>
	</defs>
	<rect id="icon" width="40.000000" height="40.000000" x="0.000000" y="0.000000" rx="20.000000" fill="rgb(21,112,239)" fill-opacity="0.100000001" />
	<g id="bell" clip-path="url(#clipPath_9)" customFrame="url(#clipPath_9)">
		<rect id="bell" width="24.000000" height="24.000000" x="8.000000" y="8.000000" fill="rgb(255,255,255)" fill-opacity="0" />
		<path id="Vector" d="M13.85 11.4998C13.9752 11.3506 14.0374 11.1586 14.0236 10.9644C14.0097 10.7701 13.9208 10.5889 13.7757 10.459C13.6306 10.3291 13.4407 10.2607 13.2461 10.2683C13.0515 10.2759 12.8675 10.359 12.733 10.4998C11.5045 11.8701 10.6902 13.561 10.385 15.3758C10.3568 15.5699 10.4057 15.7673 10.5212 15.9257C10.6368 16.0842 10.8098 16.1911 11.0032 16.2235C11.1966 16.2559 11.395 16.2113 11.5559 16.0992C11.7168 15.9871 11.8274 15.8165 11.864 15.6238C12.1221 14.0888 12.8109 12.6587 13.85 11.4998ZM27.267 10.4998C27.2015 10.4258 27.1221 10.3654 27.0332 10.3221C26.9443 10.2789 26.8477 10.2537 26.749 10.2479C26.6503 10.2421 26.5515 10.2559 26.4581 10.2884C26.3648 10.321 26.2788 10.3717 26.2051 10.4376C26.1314 10.5035 26.0715 10.5833 26.0288 10.6725C25.986 10.7616 25.9614 10.8583 25.9562 10.957C25.9509 11.0558 25.9653 11.1545 25.9984 11.2477C26.0315 11.3408 26.0827 11.4265 26.149 11.4998C27.1885 12.6586 27.8775 14.0887 28.136 15.6238C28.1689 15.8201 28.2784 15.9952 28.4404 16.1108C28.5207 16.168 28.6114 16.2088 28.7074 16.231C28.8034 16.2531 28.9028 16.2561 29 16.2398C29.0972 16.2235 29.1902 16.1883 29.2738 16.136C29.3573 16.0838 29.4298 16.0156 29.487 15.9354C29.5442 15.8552 29.585 15.7645 29.6071 15.6685C29.6293 15.5724 29.6323 15.473 29.616 15.3758C29.3102 13.5608 28.4962 11.8699 27.267 10.4998Z" fill="rgb(21,112,239)" fill-rule="nonzero" />
		<path id="Vector" d="M20 10.25C18.2098 10.25 16.4929 10.9612 15.2271 12.227C13.9612 13.4929 13.25 15.2098 13.25 17L13.25 17.75C13.2531 19.7892 12.4978 21.7567 11.131 23.27C11.049 23.3611 10.9904 23.4708 10.9606 23.5898C10.9308 23.7087 10.9306 23.8331 10.96 23.9521C10.9894 24.0711 11.0475 24.1811 11.1293 24.2724C11.2111 24.3638 11.314 24.4337 11.429 24.476C12.973 25.046 14.589 25.466 16.26 25.719C16.2224 26.2331 16.2912 26.7495 16.4621 27.2359C16.633 27.7222 16.9024 28.1681 17.2533 28.5457C17.6043 28.9233 18.0294 29.2245 18.502 29.4304C18.9745 29.6364 19.4845 29.7427 20 29.7427C20.5156 29.7427 21.0255 29.6364 21.4981 29.4304C21.9707 29.2245 22.3958 28.9233 22.7467 28.5457C23.0977 28.1681 23.3671 27.7222 23.538 27.2359C23.7089 26.7495 23.7777 26.2331 23.74 25.719C25.3881 25.4692 27.0064 25.0523 28.57 24.475C28.6849 24.4326 28.7876 24.3627 28.8693 24.2715C28.9509 24.1802 29.009 24.0703 29.0384 23.9515C29.0678 23.8326 29.0676 23.7084 29.0379 23.5896C29.0082 23.4708 28.9499 23.3611 28.868 23.27C27.5016 21.7565 26.7467 19.7891 26.75 17.75L26.75 17C26.75 15.2098 26.0389 13.4929 24.773 12.227C23.5071 10.9612 21.7902 10.25 20 10.25ZM17.75 26C17.75 25.966 17.75 25.933 17.752 25.9C19.2477 26.0348 20.7524 26.0348 22.248 25.9L22.25 26C22.25 26.5967 22.013 27.169 21.591 27.591C21.1691 28.0129 20.5968 28.25 20 28.25C19.4033 28.25 18.831 28.0129 18.409 27.591C17.9871 27.169 17.75 26.5967 17.75 26Z" fill="rgb(21,112,239)" fill-rule="evenodd" />
	</g>
</svg>
