<svg viewBox="0 0 40 40" xmlns="http://www.w3.org/2000/svg" xmlns:xlink="http://www.w3.org/1999/xlink" width="40.000000" height="40.000000" fill="none" customFrame="url(#clipPath_6)">
	<defs>
		<clipPath id="clipPath_6">
			<rect width="40.000000" height="40.000000" x="0.000000" y="0.000000" rx="20.000000" fill="rgb(255,255,255)" />
		</clipPath>
		<clipPath id="clipPath_7">
			<rect width="24.000000" height="24.000000" x="8.000000" y="8.000000" fill="rgb(255,255,255)" />
		</clipPath>
	</defs>
	<rect id="icon" width="40.000000" height="40.000000" x="0.000000" y="0.000000" rx="20.000000" fill="rgb(21,112,239)" fill-opacity="0.100000001" />
	<g id="Frame" clip-path="url(#clipPath_7)" customFrame="url(#clipPath_7)">
		<rect id="Frame" width="24.000000" height="24.000000" x="8.000000" y="8.000000" fill="rgb(255,255,255)" fill-opacity="0" />
		<path id="Vector" d="M20 15.5C19.4033 15.5 18.831 15.7371 18.409 16.159C17.9871 16.581 17.75 17.1533 17.75 17.75C17.75 18.3467 17.9871 18.919 18.409 19.341C18.831 19.7629 19.4033 20 20 20C20.5967 20 21.169 19.7629 21.591 19.341C22.0129 18.919 22.25 18.3467 22.25 17.75C22.25 17.1533 22.0129 16.581 21.591 16.159C21.169 15.7371 20.5967 15.5 20 15.5Z" fill="rgb(21,112,239)" fill-rule="nonzero" />
		<path id="Vector" d="M9.5 12.875C9.5 11.839 10.34 11 11.375 11L28.625 11C29.66 11 30.5 11.84 30.5 12.875L30.5 22.625C30.5 23.661 29.66 24.5 28.625 24.5L11.375 24.5C11.1288 24.5 10.885 24.4515 10.6575 24.3573C10.43 24.263 10.2233 24.1249 10.0492 23.9508C9.87506 23.7767 9.73695 23.57 9.64273 23.3425C9.5485 23.115 9.5 22.8712 9.5 22.625L9.5 12.875ZM16.25 17.75C16.25 16.7554 16.6451 15.8016 17.3484 15.0983C18.0516 14.3951 19.0054 14 20 14C20.9946 14 21.9484 14.3951 22.6516 15.0983C23.3549 15.8016 23.75 16.7554 23.75 17.75C23.75 18.7446 23.3549 19.6984 22.6516 20.4016C21.9484 21.1049 20.9946 21.5 20 21.5C19.0054 21.5 18.0516 21.1049 17.3484 20.4016C16.6451 19.6984 16.25 18.7446 16.25 17.75ZM26.75 17C26.5511 17 26.3603 17.079 26.2197 17.2197C26.079 17.3603 26 17.5511 26 17.75L26 17.758C26 18.172 26.336 18.508 26.75 18.508L26.758 18.508C26.9569 18.508 27.1477 18.429 27.2883 18.2883C27.429 18.1477 27.508 17.9569 27.508 17.758L27.508 17.75C27.508 17.5511 27.429 17.3603 27.2883 17.2197C27.1477 17.079 26.9569 17 26.758 17L26.75 17ZM12.5 17.75C12.5 17.5511 12.579 17.3603 12.7197 17.2197C12.8603 17.079 13.0511 17 13.25 17L13.258 17C13.4569 17 13.6477 17.079 13.7883 17.2197C13.929 17.3603 14.008 17.5511 14.008 17.75L14.008 17.758C14.008 17.9569 13.929 18.1477 13.7883 18.2883C13.6477 18.429 13.4569 18.508 13.258 18.508L13.25 18.508C13.0511 18.508 12.8603 18.429 12.7197 18.2883C12.579 18.1477 12.5 17.9569 12.5 17.758L12.5 17.75Z" fill="rgb(21,112,239)" fill-rule="evenodd" />
		<path id="Vector" d="M10.25 26C10.0511 26 9.86032 26.079 9.71967 26.2197C9.57902 26.3603 9.5 26.5511 9.5 26.75C9.5 26.9489 9.57902 27.1397 9.71967 27.2803C9.86032 27.421 10.0511 27.5 10.25 27.5C15.65 27.5 20.88 28.222 25.85 29.575C27.04 29.899 28.25 29.017 28.25 27.755L28.25 26.75C28.25 26.5511 28.171 26.3603 28.0303 26.2197C27.8897 26.079 27.6989 26 27.5 26L10.25 26Z" fill="rgb(21,112,239)" fill-rule="nonzero" />
	</g>
</svg>
