<svg viewBox="0 0 40 40" xmlns="http://www.w3.org/2000/svg" xmlns:xlink="http://www.w3.org/1999/xlink" width="40.000000" height="40.000000" fill="none" customFrame="url(#clipPath_4)">
	<defs>
		<clipPath id="clipPath_4">
			<rect width="40.000000" height="40.000000" x="0.000000" y="0.000000" rx="20.000000" fill="rgb(255,255,255)" />
		</clipPath>
		<clipPath id="clipPath_5">
			<rect width="24.000000" height="24.000000" x="8.000000" y="8.000000" fill="rgb(255,255,255)" />
		</clipPath>
	</defs>
	<rect id="icon" width="40.000000" height="40.000000" x="0.000000" y="0.000000" rx="20.000000" fill="rgb(21,112,239)" fill-opacity="0.100000001" />
	<g id="Frame" clip-path="url(#clipPath_5)" customFrame="url(#clipPath_5)">
		<rect id="Frame" width="24.000000" height="24.000000" x="8.000000" y="8.000000" fill="rgb(255,255,255)" fill-opacity="0" />
		<path id="Vector" d="M20 10.25C14.615 10.25 10.25 14.615 10.25 20C10.25 25.385 14.615 29.75 20 29.75C25.385 29.75 29.75 25.385 29.75 20C29.75 14.615 25.385 10.25 20 10.25ZM20.75 14C20.75 13.8011 20.671 13.6103 20.5303 13.4697C20.3897 13.329 20.1989 13.25 20 13.25C19.8011 13.25 19.6103 13.329 19.4697 13.4697C19.329 13.6103 19.25 13.8011 19.25 14L19.25 20C19.25 20.414 19.586 20.75 20 20.75L24.5 20.75C24.6989 20.75 24.8897 20.671 25.0303 20.5303C25.171 20.3897 25.25 20.1989 25.25 20C25.25 19.8011 25.171 19.6103 25.0303 19.4697C24.8897 19.329 24.6989 19.25 24.5 19.25L20.75 19.25L20.75 14Z" fill="rgb(21,112,239)" fill-rule="evenodd" />
	</g>
</svg>
