<svg viewBox="0 0 40 40" xmlns="http://www.w3.org/2000/svg" xmlns:xlink="http://www.w3.org/1999/xlink" width="40.000000" height="40.000000" fill="none" customFrame="url(#clipPath_2)">
	<defs>
		<clipPath id="clipPath_2">
			<rect width="40.000000" height="40.000000" x="0.000000" y="0.000000" rx="20.000000" fill="rgb(255,255,255)" />
		</clipPath>
		<clipPath id="clipPath_3">
			<rect width="24.000000" height="24.000000" x="8.000000" y="8.000000" fill="rgb(255,255,255)" />
		</clipPath>
	</defs>
	<rect id="icon" width="40.000000" height="40.000000" x="0.000000" y="0.000000" rx="20.000000" fill="rgb(21,112,239)" fill-opacity="0.100000001" />
	<g id="Frame" clip-path="url(#clipPath_3)" customFrame="url(#clipPath_3)">
		<rect id="Frame" width="24.000000" height="24.000000" x="8.000000" y="8.000000" fill="rgb(255,255,255)" fill-opacity="0" />
		<path id="Vector" d="M29.731 10.2689C29.2387 9.77675 28.5711 9.50024 27.875 9.50024C27.1789 9.50024 26.5113 9.77675 26.019 10.2689L24.862 11.4259L28.574 15.1379L29.731 13.9809C30.2232 13.4887 30.4997 12.8211 30.4997 12.1249C30.4997 11.4288 30.2232 10.7612 29.731 10.2689ZM27.513 16.1989L23.801 12.4869L15.401 20.8869C14.7839 21.5038 14.3302 22.2647 14.081 23.1009L13.281 25.7859C13.2424 25.9155 13.2395 26.0531 13.2727 26.1842C13.3058 26.3152 13.3738 26.4349 13.4694 26.5305C13.565 26.6261 13.6847 26.6941 13.8158 26.7273C13.9468 26.7604 14.0844 26.7576 14.214 26.7189L16.899 25.9189C17.7352 25.6698 18.4962 25.2161 19.113 24.5989L27.513 16.1989Z" fill="rgb(21,112,239)" fill-rule="nonzero" />
		<path id="Vector" d="M13.25 13.25C12.4544 13.25 11.6913 13.5661 11.1287 14.1287C10.5661 14.6913 10.25 15.4544 10.25 16.25L10.25 26.75C10.25 27.5457 10.5661 28.3087 11.1287 28.8713C11.6913 29.4339 12.4544 29.75 13.25 29.75L23.75 29.75C24.5457 29.75 25.3087 29.4339 25.8713 28.8713C26.4339 28.3087 26.75 27.5457 26.75 26.75L26.75 21.5C26.75 21.3011 26.671 21.1103 26.5303 20.9697C26.3897 20.829 26.1989 20.75 26 20.75C25.8011 20.75 25.6103 20.829 25.4697 20.9697C25.329 21.1103 25.25 21.3011 25.25 21.5L25.25 26.75C25.25 27.1478 25.092 27.5294 24.8107 27.8107C24.5294 28.092 24.1478 28.25 23.75 28.25L13.25 28.25C12.8522 28.25 12.4706 28.092 12.1893 27.8107C11.908 27.5294 11.75 27.1478 11.75 26.75L11.75 16.25C11.75 15.8522 11.908 15.4706 12.1893 15.1893C12.4706 14.908 12.8522 14.75 13.25 14.75L18.5 14.75C18.6989 14.75 18.8897 14.671 19.0303 14.5303C19.171 14.3897 19.25 14.1989 19.25 14C19.25 13.8011 19.171 13.6103 19.0303 13.4697C18.8897 13.329 18.6989 13.25 18.5 13.25L13.25 13.25Z" fill="rgb(21,112,239)" fill-rule="nonzero" />
	</g>
</svg>
