<svg width="40" height="40" viewBox="0 0 40 40" fill="none" xmlns="http://www.w3.org/2000/svg">
<rect width="40" height="40" rx="20" fill="#1570EF" fill-opacity="0.1"/>
<path d="M12.5 11.75C11.7044 11.75 10.9413 12.0661 10.3787 12.6287C9.81607 13.1913 9.5 13.9544 9.5 14.75V15.5H30.5V14.75C30.5 13.9544 30.1839 13.1913 29.6213 12.6287C29.0587 12.0661 28.2956 11.75 27.5 11.75H12.5Z" fill="#1570EF"/>
<path fill-rule="evenodd" clip-rule="evenodd" d="M30.5 17.75H9.5V25.25C9.5 26.0456 9.81607 26.8087 10.3787 27.3713C10.9413 27.9339 11.7044 28.25 12.5 28.25H27.5C28.2956 28.25 29.0587 27.9339 29.6213 27.3713C30.1839 26.8087 30.5 26.0456 30.5 25.25V17.75ZM12.5 21.5C12.5 21.3011 12.579 21.1103 12.7197 20.9697C12.8603 20.829 13.0511 20.75 13.25 20.75H19.25C19.4489 20.75 19.6397 20.829 19.7803 20.9697C19.921 21.1103 20 21.3011 20 21.5C20 21.6989 19.921 21.8897 19.7803 22.0303C19.6397 22.171 19.4489 22.25 19.25 22.25H13.25C13.0511 22.25 12.8603 22.171 12.7197 22.0303C12.579 21.8897 12.5 21.6989 12.5 21.5ZM13.25 23.75C13.0511 23.75 12.8603 23.829 12.7197 23.9697C12.579 24.1103 12.5 24.3011 12.5 24.5C12.5 24.6989 12.579 24.8897 12.7197 25.0303C12.8603 25.171 13.0511 25.25 13.25 25.25H16.25C16.4489 25.25 16.6397 25.171 16.7803 25.0303C16.921 24.8897 17 24.6989 17 24.5C17 24.3011 16.921 24.1103 16.7803 23.9697C16.6397 23.829 16.4489 23.75 16.25 23.75H13.25Z" fill="#1570EF"/>
</svg>
