<svg viewBox="0 0 308 308" xmlns="http://www.w3.org/2000/svg" xmlns:xlink="http://www.w3.org/1999/xlink" width="308.000000" height="308.000000" fill="none" clip-path="url(#clipPath_8)" customFrame="url(#clipPath_8)">
	<defs>
		<clipPath id="clipPath_8">
			<rect width="306.000000" height="306.000000" x="1.000000" y="1.000000" rx="16.000000" fill="rgb(255,255,255)" />
		</clipPath>
		<clipPath id="clipPath_9">
			<rect width="228.000000" height="104.000000" x="40.000000" y="102.000000" fill="rgb(255,255,255)" />
		</clipPath>
		<clipPath id="clipPath_10">
			<rect width="104.000000" height="104.000000" x="40.000000" y="102.000000" fill="rgb(255,255,255)" />
		</clipPath>
		<clipPath id="clipPath_11">
			<rect width="104.000000" height="104.000000" x="164.000000" y="102.000000" fill="rgb(255,255,255)" />
		</clipPath>
	</defs>
	<rect id="interface" width="306.000000" height="306.000000" x="1.000000" y="1.000000" rx="16.000000" stroke="rgb(235,235,235)" stroke-width="2" />
	<g id="Frame 33" customFrame="url(#clipPath_9)">
		<rect id="Frame 33" width="228.000000" height="104.000000" x="40.000000" y="102.000000" />
		<g id="ic:baseline-apple" clip-path="url(#clipPath_10)" customFrame="url(#clipPath_10)">
			<rect id="ic:baseline-apple" width="104.000000" height="104.000000" x="40.000000" y="102.000000" fill="rgb(255,255,255)" fill-opacity="0" />
			<path id="Vector" d="M113.883 189.88C109.637 193.997 105 193.347 100.537 191.397C95.8134 189.403 91.48 189.317 86.4967 191.397C80.2567 194.083 76.9634 193.303 73.2367 189.88C52.09 168.083 55.21 134.89 79.2167 133.677C85.0667 133.98 89.14 136.883 92.5634 137.143C97.6767 136.103 102.573 133.113 108.033 133.503C114.577 134.023 119.517 136.623 122.767 141.303C109.247 149.407 112.453 167.217 124.847 172.2C122.377 178.7 119.17 185.157 113.84 189.923L113.883 189.88ZM92.13 133.417C91.48 123.753 99.3234 115.78 108.337 115C109.593 126.18 98.1967 134.5 92.13 133.417Z" fill="rgb(0,0,0)" fill-rule="nonzero" />
		</g>
		<g id="material-symbols:android" clip-path="url(#clipPath_11)" customFrame="url(#clipPath_11)">
			<rect id="material-symbols:android" width="104.000000" height="104.000000" x="164.000000" y="102.000000" fill="rgb(255,255,255)" fill-opacity="0" />
			<path id="Vector" d="M168.333 180C168.983 172.272 171.349 165.158 175.431 158.658C179.513 152.158 184.947 146.994 191.733 143.167L183.717 129.3C183.283 128.65 183.175 127.964 183.392 127.242C183.608 126.519 184.078 125.978 184.8 125.617C185.378 125.256 186.028 125.183 186.75 125.4C187.472 125.617 188.05 126.05 188.483 126.7L196.5 140.567C202.711 137.967 209.211 136.667 216 136.667C222.789 136.667 229.289 137.967 235.5 140.567L243.517 126.7C243.95 126.05 244.528 125.617 245.25 125.4C245.972 125.183 246.622 125.256 247.2 125.617C247.922 125.978 248.392 126.519 248.608 127.242C248.825 127.964 248.717 128.65 248.283 129.3L240.267 143.167C247.056 146.994 252.49 152.158 256.569 158.658C260.648 165.158 263.014 172.272 263.667 180L168.333 180ZM194.333 168.083C195.85 168.083 197.133 167.559 198.181 166.51C199.23 165.462 199.753 164.18 199.75 162.667C199.747 161.153 199.223 159.87 198.177 158.819C197.131 157.767 195.85 157.244 194.333 157.25C192.817 157.256 191.534 157.78 190.485 158.823C189.437 159.866 188.914 161.147 188.917 162.667C188.92 164.186 189.444 165.469 190.49 166.515C191.535 167.56 192.817 168.083 194.333 168.083ZM237.667 168.083C239.183 168.083 240.466 167.559 241.515 166.51C242.563 165.462 243.086 164.18 243.083 162.667C243.08 161.153 242.556 159.87 241.51 158.819C240.465 157.767 239.183 157.244 237.667 157.25C236.15 157.256 234.867 157.78 233.819 158.823C232.77 159.866 232.247 161.147 232.25 162.667C232.253 164.186 232.777 165.469 233.823 166.515C234.869 167.56 236.15 168.083 237.667 168.083Z" fill="rgb(3,152,85)" fill-rule="nonzero" />
		</g>
	</g>
</svg>
