<svg width="1275" height="1275" viewBox="0 0 1275 1275" fill="none" xmlns="http://www.w3.org/2000/svg">
<path d="M0.5 112L0.500046 1162M1274 0.5L0 0.5M98.5 112L98.5 1162M1274 98.5H0M196.5 112L196.5 1162M1274 196.5H0M294.5 112L294.5 1162M1274 294.5H0M392.5 112L392.5 1162M1274 392.5H0M490.5 112L490.5 1162M1274 490.5H0M588.5 112L588.5 1162M1274 588.5H0M686.5 112L686.5 1162M1274 686.5H0M784.5 112L784.5 1162M1274 784.5H0M882.5 112L882.5 1162M1274 882.5H0M980.5 112L980.5 1162M1274 980.5H0M1078.5 112V1162M1274 1078.5H0M1176.5 112V1162M1274 1176.5H0M1274.5 112V1162M1274 1274.5H0" stroke="url(#paint0_radial_5_57)" stroke-opacity="0.1"/>
<defs>
<radialGradient id="paint0_radial_5_57" cx="0" cy="0" r="1" gradientUnits="userSpaceOnUse" gradientTransform="translate(918.5 530) rotate(110.695) scale(795.853 796.165)">
<stop/>
<stop offset="1" stop-color="#666666" stop-opacity="0"/>
</radialGradient>
</defs>
</svg>
