<svg viewBox="0 0 40 40" xmlns="http://www.w3.org/2000/svg" xmlns:xlink="http://www.w3.org/1999/xlink" width="40.000000" height="40.000000" fill="none" customFrame="url(#clipPath_0)">
	<defs>
		<clipPath id="clipPath_0">
			<rect width="40.000000" height="40.000000" x="0.000000" y="0.000000" rx="20.000000" fill="rgb(255,255,255)" />
		</clipPath>
		<clipPath id="clipPath_1">
			<rect width="24.000000" height="24.000000" x="8.000000" y="8.000000" fill="rgb(255,255,255)" />
		</clipPath>
	</defs>
	<rect id="icon" width="40.000000" height="40.000000" x="0.000000" y="0.000000" rx="20.000000" fill="rgb(21,112,239)" fill-opacity="0.100000001" />
	<g id="Frame" clip-path="url(#clipPath_1)" customFrame="url(#clipPath_1)">
		<rect id="Frame" width="24.000000" height="24.000000" x="8.000000" y="8.000000" fill="rgb(255,255,255)" fill-opacity="0" />
		<path id="Vector" d="M15.491 13.9921C15.491 13.7932 15.57 13.6024 15.7107 13.4618C15.8513 13.3211 16.0421 13.2421 16.241 13.2421L28.241 13.2421C28.4399 13.2421 28.6307 13.3211 28.7713 13.4618C28.912 13.6024 28.991 13.7932 28.991 13.9921C28.991 14.191 28.912 14.3818 28.7713 14.5224C28.6307 14.6631 28.4399 14.7421 28.241 14.7421L16.241 14.7421C16.0421 14.7421 15.8513 14.6631 15.7107 14.5224C15.57 14.3818 15.491 14.191 15.491 13.9921ZM15.49 19.9951C15.49 19.7962 15.569 19.6054 15.7097 19.4648C15.8503 19.3241 16.0411 19.2451 16.24 19.2451L28.24 19.2451C28.4389 19.2451 28.6297 19.3241 28.7703 19.4648C28.911 19.6054 28.99 19.7962 28.99 19.9951C28.99 20.194 28.911 20.3848 28.7703 20.5254C28.6297 20.6661 28.4389 20.7451 28.24 20.7451L16.24 20.7451C16.0411 20.7451 15.8503 20.6661 15.7097 20.5254C15.569 20.3848 15.49 20.194 15.49 19.9951ZM15.491 25.9941C15.491 25.7952 15.57 25.6044 15.7107 25.4638C15.8513 25.3231 16.0421 25.2441 16.241 25.2441L28.241 25.2441C28.4399 25.2441 28.6307 25.3231 28.7713 25.4638C28.912 25.6044 28.991 25.7952 28.991 25.9941C28.991 26.193 28.912 26.3838 28.7713 26.5244C28.6307 26.6651 28.4399 26.7441 28.241 26.7441L16.241 26.7441C16.0421 26.7441 15.8513 26.6651 15.7107 26.5244C15.57 26.3838 15.491 26.193 15.491 25.9941ZM10.24 11.7451C10.24 11.5462 10.319 11.3554 10.4597 11.2148C10.6003 11.0741 10.7911 10.9951 10.99 10.9951L12.115 10.9951C12.3139 10.9951 12.5047 11.0741 12.6453 11.2148C12.786 11.3554 12.865 11.5462 12.865 11.7451L12.865 14.7451L13.24 14.7451C13.4389 14.7451 13.6297 14.8241 13.7703 14.9648C13.911 15.1054 13.99 15.2962 13.99 15.4951C13.99 15.694 13.911 15.8848 13.7703 16.0254C13.6297 16.1661 13.4389 16.2451 13.24 16.2451L10.99 16.2451C10.7911 16.2451 10.6003 16.1661 10.4597 16.0254C10.319 15.8848 10.24 15.694 10.24 15.4951C10.24 15.2962 10.319 15.1054 10.4597 14.9648C10.6003 14.8241 10.7911 14.7451 10.99 14.7451L11.365 14.7451L11.365 12.4951L10.99 12.4951C10.7911 12.4951 10.6003 12.4161 10.4597 12.2754C10.319 12.1348 10.24 11.944 10.24 11.7451ZM10.79 18.6021C10.6496 18.4615 10.5707 18.2709 10.5707 18.0721C10.5707 17.8734 10.6496 17.6827 10.79 17.5421C10.9634 17.3649 11.1702 17.2239 11.3984 17.1271C11.6267 17.0304 11.8719 16.9799 12.1198 16.9785C12.3677 16.9772 12.6134 17.025 12.8427 17.1192C13.072 17.2134 13.2804 17.3522 13.4557 17.5274C13.631 17.7027 13.7699 17.911 13.8642 18.1403C13.9585 18.3695 14.0064 18.6152 14.0051 18.8631C14.0038 19.111 13.9534 19.3562 13.8567 19.5845C13.7601 19.8128 13.6191 20.0197 13.442 20.1931L12.892 20.7431L13.242 20.7431C13.4409 20.7431 13.6317 20.8221 13.7723 20.9628C13.913 21.1034 13.992 21.2942 13.992 21.4931C13.992 21.692 13.913 21.8828 13.7723 22.0234C13.6317 22.1641 13.4409 22.2431 13.242 22.2431L11.082 22.2431C10.9336 22.2432 10.7884 22.1992 10.665 22.1167C10.5416 22.0343 10.4454 21.917 10.3886 21.7799C10.3319 21.6427 10.3171 21.4918 10.3462 21.3462C10.3753 21.2006 10.4469 21.067 10.552 20.9621L12.382 19.1321C12.4482 19.061 12.4843 18.967 12.4826 18.8699C12.4809 18.7727 12.4415 18.68 12.3728 18.6113C12.3041 18.5426 12.2114 18.5032 12.1143 18.5015C12.0171 18.4998 11.9231 18.5359 11.852 18.6021C11.7823 18.672 11.6996 18.7274 11.6085 18.7652C11.5173 18.803 11.4197 18.8225 11.321 18.8225C11.2224 18.8225 11.1247 18.803 11.0336 18.7652C10.9424 18.7274 10.8597 18.672 10.79 18.6021ZM10.24 23.7451C10.24 23.5462 10.319 23.3554 10.4597 23.2148C10.6003 23.0741 10.7911 22.9951 10.99 22.9951L12.115 22.9951C12.4631 22.9951 12.8044 23.0919 13.1006 23.2749C13.3968 23.4578 13.6362 23.7196 13.792 24.0309C13.9478 24.3422 14.0138 24.6908 13.9828 25.0375C13.9517 25.3842 13.8247 25.7155 13.616 25.9941C13.825 26.2728 13.9522 26.6041 13.9834 26.951C14.0147 27.2979 13.9487 27.6466 13.7928 27.9581C13.637 28.2696 13.3975 28.5315 13.1011 28.7145C12.8048 28.8975 12.4633 28.9943 12.115 28.9941L10.99 28.9941C10.791 28.9941 10.6001 28.915 10.4593 28.7743C10.3186 28.6336 10.2395 28.4427 10.2395 28.2436C10.2395 28.0446 10.3186 27.8537 10.4593 27.7129C10.6001 27.5722 10.791 27.4931 10.99 27.4931L12.115 27.4931C12.2109 27.4925 12.3029 27.4551 12.3721 27.3887C12.4412 27.3223 12.4824 27.2319 12.487 27.1362C12.4916 27.0404 12.4593 26.9465 12.3968 26.8737C12.3344 26.801 12.2464 26.755 12.151 26.7451L11.74 26.7451C11.5411 26.7451 11.3503 26.6661 11.2097 26.5254C11.069 26.3848 10.99 26.194 10.99 25.9951L10.99 25.9931C10.99 25.7942 11.069 25.6034 11.2097 25.4628C11.3503 25.3221 11.5411 25.2431 11.74 25.2431L12.151 25.2431C12.2464 25.2332 12.3344 25.1872 12.3968 25.1145C12.4593 25.0418 12.4916 24.9479 12.487 24.8521C12.4824 24.7563 12.4412 24.6659 12.3721 24.5995C12.3029 24.5331 12.2109 24.4958 12.115 24.4951L10.99 24.4951C10.7911 24.4951 10.6003 24.4161 10.4597 24.2754C10.319 24.1348 10.24 23.944 10.24 23.7451Z" fill="rgb(21,112,239)" fill-rule="evenodd" />
	</g>
</svg>
