<svg width="64" height="64" viewBox="0 0 64 64" fill="none" xmlns="http://www.w3.org/2000/svg">
<rect width="64" height="64" rx="32" fill="#1570EF" fill-opacity="0.1"/>
<path d="M30 41C29.7348 41 29.4804 41.1054 29.2929 41.2929C29.1054 41.4804 29 41.7348 29 42C29 42.2652 29.1054 42.5196 29.2929 42.7071C29.4804 42.8946 29.7348 43 30 43H34C34.2652 43 34.5196 42.8946 34.7071 42.7071C34.8946 42.5196 35 42.2652 35 42C35 41.7348 34.8946 41.4804 34.7071 41.2929C34.5196 41.1054 34.2652 41 34 41H30Z" fill="#1570EF"/>
<path fill-rule="evenodd" clip-rule="evenodd" d="M27.5 17C26.3065 17 25.1619 17.4741 24.318 18.318C23.4741 19.1619 23 20.3065 23 21.5V42.5C23 43.6935 23.4741 44.8381 24.318 45.682C25.1619 46.5259 26.3065 47 27.5 47H36.5C37.6935 47 38.8381 46.5259 39.682 45.682C40.5259 44.8381 41 43.6935 41 42.5V21.5C41 20.3065 40.5259 19.1619 39.682 18.318C38.8381 17.4741 37.6935 17 36.5 17H27.5ZM26 21.5C26 20.672 26.672 20 27.5 20H29V20.5C29 21.328 29.672 22 30.5 22H33.5C34.328 22 35 21.328 35 20.5V20H36.5C37.328 20 38 20.672 38 21.5V42.5C38 43.328 37.328 44 36.5 44H27.5C27.1022 44 26.7206 43.842 26.4393 43.5607C26.158 43.2794 26 42.8978 26 42.5V21.5Z" fill="#1570EF"/>
</svg>
